Sample : http://www.mirrorcreator.com/files/GVEHOD6Z/



::General::
Complete name: Prometheus 2012 720p BluRay x264 [Dual Audio] Eng-Hin NimitMak SilverRG
Director: Ridley Scott
Format: MPEG-4
File size: 798 MiB
Duration: 2h 3mn
Overall Bitrate: 901 Kbps
Language: Dual - Audio [Eng-Hin]
Sub Title: English , Persian (.srt) Can Be Turned off.
Encoded date: 2012-09-28
Writing application: MeGui
Writing library: x264 core 100 r1659 57b2e56
Encoder: NimitMak
Source: 720p.BluRay.X264.YIFY



::IMDB INFO::
IMDB Link:http://www.imdb.com/title/tt1446714/
IMDB Rating:7.4/10
Release Date:8 June 2012 (India)
Genre: Adventure | Sci-Fi | Thriller 
YouTube



::Video::
ID: 1
Format: AVC
Format/Info: Advanced Video Codec
Format profile: HighL@4.1
Format settings, CABAC: Yes
Format settings, ReFrames: 12 frames
Codec ID: V_MPEG4/ISO/AVC
Nominal Bitrate: 809 Kbps/16.7 Mbps (Max)
Width: 1280 pixels
Height: 528 pixels
Display aspect ratio: 2.40:1
Frame rate: 23.976 fps
Color space: YUV
Chroma subsampling: 4:2:0
Bit depth: 8 bits
Scan type: Progressive
Writing library: x264 core 100 r1659 57b2e56



::Audio #1::
ID: 2
Format: AAC
Format/Info: Advanced Audio Codec
Format profile: HE-AAC / LC
Codec ID: 40
Duration: 2h 3mn
Bit rate mode: Variable
Bit rate: 32.0 Kbps
Maximum bit rate: 42.2 Kbps
Channel(s): 2 channels
Channel positions: Front: L R
Sampling rate: 22.05 KHz / 11.025 KHz
Compression mode: Lossy
Stream size: 28.3 MiB (4%)
Title : English - NimitMak SilverRG
Language: English

::Audio #2::
ID: 3
Format: AAC
Format/Info: Advanced Audio Codec
Format profile: LC
Codec ID: 40
Duration: 2h 3mn
Bit rate mode: Variable
Bit rate : 56.0 Kbps
Maximum bit rate: 67.1 Kbps
Channel(s): 2 channels
Channel positions: Front: L R
Sampling rate : 48.0 KHz
Compression mode: Lossy
Stream size: 49.6 MiB (6%)
Title: Hindi - NimitMak SilverRG
Language: Hindi

::Text #1::
ID: 4
Format: Timed text
Codec ID: tx3g
Duration: 1h 56mn
Bit rate mode: Variable
Bit rate: 48 bps
Stream size: 41.1 KiB (0%)
Title: English - NimitMak SilverRG
Language: English

::Text #2::
ID: 5
Format : Timed text
Codec ID : tx3g
Duration: 1h 58mn
Bit rate mode: Variable
Bit rate : 76 bps
Stream size: 65.4 KiB (0%)
Title: Persian - NimitMak SilverRG
Language: Persian

Screens :

